<svg width="1600" height="1600" viewBox="0 0 1600 1600" fill="none" xmlns="http://www.w3.org/2000/svg">
<rect y="1483" width="1600" height="117" fill="#FDC658"/>
<path d="M1216.05 1503.75V1570.6H1230.14V1581H1202.45V1503.75H1216.05Z" fill="#001838"/>
<path d="M1183.39 1503.75V1570.6H1197.48V1581H1169.78V1503.75H1183.39Z" fill="#001838"/>
<path d="M1165.57 1581H1151.19L1150.02 1567.69H1141.86L1140.79 1581H1127.29L1136.52 1503.75H1156.34L1165.57 1581ZM1145.45 1524.74L1142.73 1557.29H1149.15L1146.43 1524.74H1145.45Z" fill="#001838"/>
<path d="M1112.69 1503.75V1514.15H1098.02V1537.08H1107.54V1547.48H1098.02V1581H1084.41V1503.75H1112.69Z" fill="#001838"/>
<path d="M1060.5 1581.97C1049.33 1581.97 1042.72 1572.74 1042.72 1556.9V1527.95C1042.72 1512.11 1049.33 1502.78 1060.5 1502.78C1071.58 1502.78 1078.28 1512.11 1078.28 1527.95V1556.9C1078.28 1572.74 1071.58 1581.97 1060.5 1581.97ZM1060.5 1570.7C1063.22 1570.7 1064.68 1568.66 1064.68 1564.87V1519.98C1064.68 1516.09 1063.22 1514.05 1060.5 1514.05C1057.68 1514.05 1056.32 1516.09 1056.32 1519.98V1564.87C1056.32 1568.66 1057.68 1570.7 1060.5 1570.7Z" fill="#001838"/>
<path d="M1011.65 1549.42L1010.97 1503.75H1023.31V1581H1008.64L1000.48 1535.33H999.504L1000.18 1581H987.845V1503.75H1002.52L1010.68 1549.42H1011.65Z" fill="#001838"/>
<path d="M963.932 1581.97C952.758 1581.97 946.151 1572.74 946.151 1556.9V1527.95C946.151 1512.11 952.758 1502.78 963.932 1502.78C975.008 1502.78 981.713 1512.11 981.713 1527.95V1556.9C981.713 1572.74 975.008 1581.97 963.932 1581.97ZM963.932 1570.7C966.652 1570.7 968.11 1568.66 968.11 1564.87V1519.98C968.11 1516.09 966.652 1514.05 963.932 1514.05C961.114 1514.05 959.754 1516.09 959.754 1519.98V1564.87C959.754 1568.66 961.114 1570.7 963.932 1570.7Z" fill="#001838"/>
<path d="M923.831 1581.97C913.24 1581.97 906.438 1574.1 906.438 1561.86V1554.18L919.458 1553.41V1565.45C919.458 1569.15 921.013 1571.19 923.831 1571.19C926.551 1571.19 928.009 1569.15 928.009 1565.45V1560.3C928.009 1544.95 907.993 1546.6 907.993 1526.3V1522.41C907.993 1510.46 914.503 1502.78 924.414 1502.78C934.519 1502.78 941.029 1510.46 941.029 1522.41V1529.7L928.397 1530.47V1519.11C928.397 1515.41 927.037 1513.57 924.608 1513.57C922.276 1513.57 921.11 1515.41 921.11 1519.11V1524.06C921.11 1537.76 941.612 1539.12 941.612 1557.29V1561.86C941.612 1574.1 934.616 1581.97 923.831 1581.97Z" fill="#001838"/>
<path d="M904.543 1581H890.163L888.997 1567.69H880.835L879.766 1581H866.26L875.491 1503.75H895.312L904.543 1581ZM884.43 1524.74L881.71 1557.29H888.122L885.402 1524.74H884.43Z" fill="#001838"/>
<path d="M848.21 1546.7V1570.6H863.659V1581H834.607V1503.75H863.173V1514.15H848.21V1536.4H859.19V1546.7H848.21Z" fill="#001838"/>
<path d="M811.607 1581.97C801.016 1581.97 794.214 1574.1 794.214 1561.86V1554.18L807.234 1553.41V1565.45C807.234 1569.15 808.789 1571.19 811.607 1571.19C814.327 1571.19 815.785 1569.15 815.785 1565.45V1560.3C815.785 1544.95 795.769 1546.6 795.769 1526.3V1522.41C795.769 1510.46 802.279 1502.78 812.19 1502.78C822.295 1502.78 828.805 1510.46 828.805 1522.41V1529.7L816.173 1530.47V1519.11C816.173 1515.41 814.813 1513.57 812.384 1513.57C810.052 1513.57 808.886 1515.41 808.886 1519.11V1524.06C808.886 1537.76 829.388 1539.12 829.388 1557.29V1561.86C829.388 1574.1 822.392 1581.97 811.607 1581.97Z" fill="#001838"/>
<path d="M778.658 1503.75V1514.15H770.011V1581H756.408V1514.15H747.76V1503.75H778.658Z" fill="#001838"/>
<path d="M728.608 1581.97C718.017 1581.97 711.216 1574.1 711.216 1561.86V1554.18L724.236 1553.41V1565.45C724.236 1569.15 725.79 1571.19 728.608 1571.19C731.328 1571.19 732.786 1569.15 732.786 1565.45V1560.3C732.786 1544.95 712.77 1546.6 712.77 1526.3V1522.41C712.77 1510.46 719.28 1502.78 729.191 1502.78C739.296 1502.78 745.806 1510.46 745.806 1522.41V1529.7L733.175 1530.47V1519.11C733.175 1515.41 731.814 1513.57 729.385 1513.57C727.053 1513.57 725.887 1515.41 725.887 1519.11V1524.06C725.887 1537.76 746.389 1539.12 746.389 1557.29V1561.86C746.389 1574.1 739.393 1581.97 728.608 1581.97Z" fill="#001838"/>
<path d="M692.862 1546.7V1570.6H708.311V1581H679.259V1503.75H707.825V1514.15H692.862V1536.4H703.842V1546.7H692.862Z" fill="#001838"/>
<path d="M674.595 1503.75V1514.15H665.947V1581H652.344V1514.15H643.697V1503.75H674.595Z" fill="#001838"/>
<path d="M645.037 1581H630.656L629.49 1567.69H621.329L620.26 1581H606.754L615.985 1503.75H635.806L645.037 1581ZM624.924 1524.74L622.203 1557.29H628.616L625.895 1524.74H624.924Z" fill="#001838"/>
<path d="M588.704 1546.7V1570.6H604.153V1581H575.101V1503.75H603.667V1514.15H588.704V1536.4H599.683V1546.7H588.704Z" fill="#001838"/>
<path d="M567.907 1554.67L570.239 1581H556.053L554.304 1553.99C554.11 1550.68 552.069 1549.42 549.251 1549.42H547.405V1581H533.802V1503.75H551.098C562.271 1503.75 568.879 1510.65 568.879 1522.31V1527.07C568.879 1536.01 564.409 1541.75 557.122 1543.01V1543.98C563.049 1544.95 567.324 1547.09 567.907 1554.67ZM547.405 1514.15V1539.03H551.098C553.818 1539.03 555.276 1537.08 555.276 1533.1V1520.18C555.276 1516.19 553.818 1514.15 551.098 1514.15H547.405Z" fill="#001838"/>
<path d="M527.289 1524.65V1533.1L513.686 1533.88V1519.98C513.686 1516.09 512.228 1514.05 509.605 1514.05C506.884 1514.05 505.524 1516.09 505.524 1519.98V1564.87C505.524 1568.66 506.884 1570.7 509.605 1570.7C512.423 1570.7 513.783 1568.56 513.783 1564.68V1549.03H509.119V1538.64H527.289V1581H514.852L513.783 1575.07H512.811C511.645 1579.35 508.342 1581.97 503.872 1581.97C495.808 1581.97 491.921 1572.64 491.921 1556.9V1527.95C491.921 1512.11 498.528 1502.78 509.605 1502.78C520.293 1502.78 527.289 1511.43 527.289 1524.65Z" fill="#001838"/>
<path d="M458.998 1546.7V1570.6H474.447V1581H445.395V1503.75H473.961V1514.15H458.998V1536.4H469.977V1546.7H458.998Z" fill="#001838"/>
<path d="M425.007 1536.5V1503.75H438.61V1581H425.007V1546.9H416.846V1581H403.243V1503.75H416.846V1536.5H425.007Z" fill="#001838"/>
<path d="M398.578 1503.75V1514.15H389.931V1581H376.328V1514.15H367.68V1503.75H398.578Z" fill="#001838"/>
<path d="M150.529 1568.92C150.529 1568.67 150.5 1568.41 150.5 1568.15C150.5 1553.51 162.561 1541.62 177.421 1541.62C162.561 1541.62 150.5 1529.73 150.5 1515.08C150.5 1515.19 150.5 1515.34 150.5 1515.45C150.5 1530.1 138.439 1541.99 123.579 1541.99C138.439 1541.99 150.5 1553.87 150.5 1568.52C150.5 1568.64 150.5 1568.78 150.5 1568.89" fill="#001838"/>
<path d="M68.9499 1568.92C68.9499 1568.67 68.921 1568.41 68.921 1568.15C68.921 1553.51 80.9821 1541.62 95.8421 1541.62C80.9821 1541.62 68.921 1529.73 68.921 1515.08C68.921 1515.19 68.921 1515.34 68.921 1515.45C68.921 1530.1 56.86 1541.99 42 1541.99C56.86 1541.99 68.921 1553.87 68.921 1568.52C68.921 1568.64 68.921 1568.78 68.921 1568.89" fill="#001838"/>
<path d="M232.108 1568.92C232.108 1568.67 232.079 1568.41 232.079 1568.15C232.079 1553.51 244.14 1541.62 259 1541.62C244.14 1541.62 232.079 1529.73 232.079 1515.08C232.079 1515.19 232.079 1515.34 232.079 1515.45C232.079 1530.1 220.018 1541.99 205.158 1541.99C220.018 1541.99 232.079 1553.87 232.079 1568.52C232.079 1568.64 232.079 1568.78 232.079 1568.89" fill="#001838"/>
<path d="M1449.53 1568.92C1449.53 1568.67 1449.5 1568.41 1449.5 1568.15C1449.5 1553.51 1461.56 1541.62 1476.42 1541.62C1461.56 1541.62 1449.5 1529.73 1449.5 1515.08C1449.5 1515.19 1449.5 1515.34 1449.5 1515.45C1449.5 1530.1 1437.44 1541.99 1422.58 1541.99C1437.44 1541.99 1449.5 1553.87 1449.5 1568.52C1449.5 1568.64 1449.5 1568.78 1449.5 1568.89" fill="#001838"/>
<path d="M1367.95 1568.92C1367.95 1568.67 1367.92 1568.41 1367.92 1568.15C1367.92 1553.51 1379.98 1541.62 1394.84 1541.62C1379.98 1541.62 1367.92 1529.73 1367.92 1515.08C1367.92 1515.19 1367.92 1515.34 1367.92 1515.45C1367.92 1530.1 1355.86 1541.99 1341 1541.99C1355.86 1541.99 1367.92 1553.87 1367.92 1568.52C1367.92 1568.64 1367.92 1568.78 1367.92 1568.89" fill="#001838"/>
<path d="M1531.11 1568.92C1531.11 1568.67 1531.08 1568.41 1531.08 1568.15C1531.08 1553.51 1543.14 1541.62 1558 1541.62C1543.14 1541.62 1531.08 1529.73 1531.08 1515.08C1531.08 1515.19 1531.08 1515.34 1531.08 1515.45C1531.08 1530.1 1519.02 1541.99 1504.16 1541.99C1519.02 1541.99 1531.08 1553.87 1531.08 1568.52C1531.08 1568.64 1531.08 1568.78 1531.08 1568.89" fill="#001838"/>
</svg>
