<svg xmlns="http://www.w3.org/2000/svg" version="1.1" x="0px" y="0px" width="416.095px" height="600px" viewBox="0 0 416.095 600" enable-background="new 0 0 416.095 600" xml:space="preserve"><path fill-rule="evenodd" clip-rule="evenodd" fill="#FFFFFF" d="M406.03 125.315H10.064l0.365 150.472c2.222 62.278 19.973 119.534 53.251 171.764 32.898 51.628 81.022 98.429 144.366 140.4 63.345-41.973 111.469-88.772 144.367-140.4 33.28-52.23 51.031-109.485 53.253-171.764L406.03 125.315z"/><path fill-rule="evenodd" clip-rule="evenodd" fill="#FFFFFF" d="M21.859 141.886l-0.012-4.781h4.793l362.814-0.002h4.791l-0.011 4.781c-0.22 93.972-1.499 138.237-1.501 138.385 -1.992 57.79-18.553 111.397-48.979 160.352 -30.572 49.186-75.153 93.656-133.027 132.916l-2.679 1.819 -2.682-1.819c-57.874-39.26-102.454-83.729-133.026-132.916C41.915 391.667 25.356 338.06 23.362 280.27 23.36 280.121 22.079 235.858 21.859 141.886z"/><path fill-rule="evenodd" clip-rule="evenodd" fill="#D1A76A" d="M205.29 598.193c-65.875-43.202-115.902-91.619-150.074-145.249C20.952 399.168 2.675 340.234 0.391 276.142v-0.177L0.01 120.276 0 115.234l5.032 0.002h406.032l5.031-0.002 -0.012 5.042 -0.379 155.688v0.177c-2.284 64.093-20.563 123.026-54.825 176.803 -34.172 53.629-84.2 102.046-150.075 145.249L208.046 600 205.29 598.193 205.29 598.193zM63.68 447.551c32.898 51.628 81.022 98.429 144.366 140.4 63.345-41.973 111.469-88.772 144.367-140.4 33.28-52.23 51.031-109.485 53.251-171.764h0.002l0.364-150.472H10.064l0.365 150.472 0 0C12.651 338.065 30.402 395.321 63.68 447.551z"/><polygon fill-rule="evenodd" clip-rule="evenodd" fill="#D1A76A" points="152.065,0 164.25,37.744 203.908,37.667 171.78,60.917   184.106,98.613 152.065,75.238 120.026,98.613 132.355,60.917 100.224,37.667 139.883,37.744 "/><polygon fill-rule="evenodd" clip-rule="evenodd" fill="#D1A76A" points="264.305,0 276.487,37.744 316.147,37.667 284.017,60.917   296.345,98.613 264.305,75.238 232.266,98.613 244.593,60.917 212.462,37.667 252.122,37.744 "/><path fill-rule="evenodd" clip-rule="evenodd" fill="#CE000C" d="M90.568 228.756v6.02H80.561v-6.02c-8.087-0.295-13.778-2.35-17.104-6.102 -3.324-3.77-4.986-8.484-4.986-14.163 0-5.969 1.727-10.752 5.21-14.339 3.469-3.607 9.113-5.564 16.88-5.874v-5.107h10.008v5.107c8.041 0.293 13.729 2.315 17.071 6.053 3.338 3.735 5.017 8.466 5.017 14.192 0 5.693-1.66 10.411-5.002 14.163C104.315 226.422 98.623 228.461 90.568 228.756L90.568 228.756 90.568 228.756zM90.568 220.042c2.669 0 4.97-0.456 6.889-1.369s3.292-2.155 4.091-3.687c0.8-1.55 1.215-3.819 1.215-6.804 0-7.473-4.059-11.208-12.195-11.208V220.042L90.568 220.042 90.568 220.042zM80.561 220.042v-23.067c-4.299 0-7.418 0.978-9.318 2.952 -1.902 1.959-2.862 4.928-2.862 8.891C68.38 216.309 72.441 220.042 80.561 220.042L80.561 220.042 80.561 220.042zM122.363 234.776v-51.652h10.213v22.937l20.636-22.937h13.73l-22.215 23.407 23.254 28.245h-13.218l-17.072-20.951 -5.131 5.338v15.613h-10.215l0 0H122.363z"/><polygon fill-rule="evenodd" clip-rule="evenodd" fill="#CE000C" points="208.049,164.817 239.177,264.251 340.509,264.052   258.415,325.306 289.913,424.616 208.049,363.037 126.182,424.616 157.681,325.306 75.586,264.052 176.918,264.251 "/><path fill-rule="evenodd" clip-rule="evenodd" fill="#CE000C" d="M210.728 573.537c57.874-39.26 102.455-83.729 133.027-132.916 30.426-48.954 46.986-102.562 48.979-160.352 0.002-0.148 1.281-44.413 1.501-138.385l0.011-4.781h-4.791L26.64 137.105h-4.793l0.012 4.781c0.22 93.972 1.501 138.235 1.503 138.383 1.994 57.79 18.553 111.397 48.979 160.352 30.573 49.186 75.153 93.656 133.026 132.916l2.682 1.819L210.728 573.537 210.728 573.537zM307.88 448.446l-100.411-73.6 -97.848 73.6 38.987-122.923L58.47 393.732c-15.568-35.754-24.166-73.727-25.545-113.743 -0.041-1.436-1.245-44.297-1.493-133.321l353.228-0.002v0.128L242.032 254.767h126.635l-97.049 72.445L307.88 448.446z"/></svg>